# Blender3D v249 OBJ File: towergreen.blend
# www.blender3d.org
mtllib towergreen.mtl
v 0.722538 -0.091467 -1.174640
v 0.846901 -0.091467 -1.023104
v 0.939311 -0.091467 -0.850217
v 0.996216 -0.091467 -0.662624
v 1.015431 -0.091467 -0.467534
v 0.996216 -0.091467 -0.272443
v 0.939311 -0.091467 -0.084850
v 0.846901 -0.091467 0.088037
v 0.722538 -0.091467 0.239573
v 0.571001 -0.091467 0.363936
v 0.398114 -0.091467 0.456346
v 0.210521 -0.091467 0.513252
v 0.015431 -0.091467 0.532467
v -0.179660 -0.091467 0.513252
v -0.367253 -0.091467 0.456346
v -0.540140 -0.091467 0.363936
v -0.691676 -0.091467 0.239573
v -0.816039 -0.091467 0.088036
v -0.908449 -0.091467 -0.084851
v -0.965354 -0.091467 -0.272444
v -0.984569 -0.091467 -0.467534
v -0.965354 -0.091467 -0.662625
v -0.908448 -0.091467 -0.850218
v -0.816038 -0.091467 -1.023105
v -0.691675 -0.091467 -1.174641
v -0.540138 -0.091467 -1.299004
v -0.367251 -0.091467 -1.391414
v -0.179658 -0.091467 -1.448319
v 0.015433 -0.091467 -1.467533
v 0.210523 -0.091467 -1.448318
v 0.398116 -0.091467 -1.391412
v 0.571003 -0.091467 -1.299002
v 0.722539 1.908533 -1.174639
v 0.846902 1.908533 -1.023102
v 0.939312 1.908533 -0.850215
v 0.996217 1.908533 -0.662622
v 1.015431 1.908533 -0.467531
v 0.996216 1.908533 -0.272441
v 0.939310 1.908533 -0.084849
v 0.846900 1.908533 0.088038
v 0.722537 1.908533 0.239574
v 0.571001 1.908533 0.363936
v 0.398115 1.908533 0.456346
v 0.210522 1.908533 0.513252
v 0.015432 1.908533 0.532466
v -0.179658 1.908533 0.513252
v -0.367251 1.908533 0.456347
v -0.540137 1.908533 0.363937
v -0.691674 1.908533 0.239575
v -0.816037 1.908533 0.088039
v -0.908447 1.908533 -0.084847
v -0.965353 1.908533 -0.272440
v -0.984569 1.908533 -0.467529
v -0.965355 1.908533 -0.662619
v -0.908450 1.908533 -0.850212
v -0.816041 1.908533 -1.023099
v -0.691680 1.908533 -1.174636
v -0.540144 1.908533 -1.299000
v -0.367258 1.908533 -1.391411
v -0.179666 1.908533 -1.448318
v 0.015424 1.908533 -1.467534
v 0.210514 1.908533 -1.448320
v 0.398107 1.908533 -1.391416
v 0.570994 1.908533 -1.299008
v 0.015431 -0.091467 -0.467533
v 0.015431 1.908533 -0.467534
vn 0.000000 -1.000000 0.000000
vn 0.000000 1.000000 0.000000
vn 0.634394 0.000000 -0.773010
vn 0.634391 0.000000 -0.773012
vn 0.471389 0.000000 -0.881925
vn 0.471398 -0.000001 -0.881921
vn 0.290277 0.000000 -0.956943
vn 0.290286 -0.000001 -0.956940
vn 0.098010 0.000000 -0.995185
vn 0.098019 -0.000001 -0.995184
vn -0.098024 0.000000 -0.995184
vn -0.098016 -0.000000 -0.995185
vn -0.290291 0.000000 -0.956938
vn -0.290283 -0.000001 -0.956941
vn -0.471402 0.000000 -0.881918
vn -0.471395 -0.000000 -0.881922
vn -0.634398 0.000000 -0.773007
vn -0.634392 -0.000000 -0.773011
vn -0.773014 0.000000 -0.634389
vn -0.773010 -0.000000 -0.634394
vn -0.881924 0.000000 -0.471392
vn -0.881921 -0.000000 -0.471398
vn -0.956942 0.000000 -0.290280
vn -0.956940 -0.000000 -0.290286
vn -0.995185 0.000000 -0.098013
vn -0.995185 -0.000000 -0.098018
vn -0.995184 0.000000 0.098021
vn -0.995185 -0.000000 0.098016
vn -0.956939 0.000000 0.290288
vn -0.956941 -0.000000 0.290284
vn -0.881920 0.000000 0.471400
vn -0.881922 -0.000000 0.471396
vn -0.773009 0.000000 0.634395
vn -0.773011 -0.000000 0.634393
vn -0.634392 0.000000 0.773012
vn -0.634394 -0.000000 0.773010
vn -0.471395 0.000000 0.881922
vn -0.471397 -0.000000 0.881921
vn -0.290283 0.000000 0.956941
vn -0.290285 -0.000000 0.956940
vn -0.098016 0.000000 0.995185
vn -0.098018 -0.000000 0.995185
vn 0.098018 0.000000 0.995185
vn 0.098017 -0.000000 0.995185
vn 0.290285 0.000000 0.956940
vn 0.290284 -0.000000 0.956940
vn 0.471397 0.000000 0.881921
vn 0.634393 0.000000 0.773011
vn 0.634393 0.000000 0.773010
vn 0.773010 -0.000000 0.634393
vn 0.773010 0.000000 0.634394
vn 0.881921 -0.000000 0.471396
vn 0.881921 0.000000 0.471398
vn 0.956940 -0.000000 0.290285
vn 0.956940 0.000000 0.290286
vn 0.995185 -0.000000 0.098017
vn 0.995184 0.000000 0.098019
vn 0.995185 -0.000000 -0.098017
vn 0.995185 0.000000 -0.098015
vn 0.956940 -0.000000 -0.290285
vn 0.956941 0.000000 -0.290283
vn 0.881921 -0.000000 -0.471397
vn 0.881922 0.000000 -0.471395
vn 0.773010 -0.000000 -0.634393
vn 0.773012 0.000000 -0.634392
usemtl Material.003
s off
f 65//1 1//1 2//1
f 66//2 34//2 33//2
f 65//1 2//1 3//1
f 66//2 35//2 34//2
f 65//1 3//1 4//1
f 66//2 36//2 35//2
f 65//1 4//1 5//1
f 66//2 37//2 36//2
f 65//1 5//1 6//1
f 66//2 38//2 37//2
f 65//1 6//1 7//1
f 66//2 39//2 38//2
f 65//1 7//1 8//1
f 66//2 40//2 39//2
f 65//1 8//1 9//1
f 66//2 41//2 40//2
f 65//1 9//1 10//1
f 66//2 42//2 41//2
f 65//1 10//1 11//1
f 66//2 43//2 42//2
f 65//1 11//1 12//1
f 66//2 44//2 43//2
f 65//1 12//1 13//1
f 66//2 45//2 44//2
f 65//1 13//1 14//1
f 66//2 46//2 45//2
f 65//1 14//1 15//1
f 66//2 47//2 46//2
f 65//1 15//1 16//1
f 66//2 48//2 47//2
f 65//1 16//1 17//1
f 66//2 49//2 48//2
f 65//1 17//1 18//1
f 66//2 50//2 49//2
f 65//1 18//1 19//1
f 66//2 51//2 50//2
f 65//1 19//1 20//1
f 66//2 52//2 51//2
f 65//1 20//1 21//1
f 66//2 53//2 52//2
f 65//1 21//1 22//1
f 66//2 54//2 53//2
f 65//1 22//1 23//1
f 66//2 55//2 54//2
f 65//1 23//1 24//1
f 66//2 56//2 55//2
f 65//1 24//1 25//1
f 66//2 57//2 56//2
f 65//1 25//1 26//1
f 66//2 58//2 57//2
f 65//1 26//1 27//1
f 66//2 59//2 58//2
f 65//1 27//1 28//1
f 66//2 60//2 59//2
f 65//1 28//1 29//1
f 66//2 61//2 60//2
f 65//1 29//1 30//1
f 66//2 62//2 61//2
f 65//1 30//1 31//1
f 66//2 63//2 62//2
f 65//1 31//1 32//1
f 66//2 64//2 63//2
f 32//1 1//1 65//1
f 66//2 33//2 64//2
f 33//3 1//3 32//3
f 33//4 32//4 64//4
f 31//5 63//5 64//5
f 31//6 64//6 32//6
f 30//7 62//7 63//7
f 30//8 63//8 31//8
f 29//9 61//9 62//9
f 29//10 62//10 30//10
f 28//11 60//11 61//11
f 28//12 61//12 29//12
f 27//13 59//13 60//13
f 27//14 60//14 28//14
f 26//15 58//15 59//15
f 26//16 59//16 27//16
f 25//17 57//17 58//17
f 25//18 58//18 26//18
f 24//19 56//19 57//19
f 24//20 57//20 25//20
f 23//21 55//21 56//21
f 23//22 56//22 24//22
f 22//23 54//23 55//23
f 22//24 55//24 23//24
f 21//25 53//25 54//25
f 21//26 54//26 22//26
f 20//27 52//27 53//27
f 20//28 53//28 21//28
f 19//29 51//29 52//29
f 19//30 52//30 20//30
f 18//31 50//31 51//31
f 18//32 51//32 19//32
f 17//33 49//33 50//33
f 17//34 50//34 18//34
f 16//35 48//35 49//35
f 16//36 49//36 17//36
f 15//37 47//37 48//37
f 15//38 48//38 16//38
f 14//39 46//39 47//39
f 14//40 47//40 15//40
f 13//41 45//41 46//41
f 13//42 46//42 14//42
f 12//43 44//43 45//43
f 12//44 45//44 13//44
f 11//45 43//45 44//45
f 11//46 44//46 12//46
f 10//47 42//47 43//47
f 10//47 43//47 11//47
f 9//48 41//48 42//48
f 9//49 42//49 10//49
f 8//50 40//50 9//50
f 40//51 41//51 9//51
f 7//52 39//52 8//52
f 39//53 40//53 8//53
f 6//54 38//54 7//54
f 38//55 39//55 7//55
f 5//56 37//56 6//56
f 37//57 38//57 6//57
f 4//58 36//58 5//58
f 36//59 37//59 5//59
f 3//60 35//60 4//60
f 35//61 36//61 4//61
f 2//62 34//62 3//62
f 34//63 35//63 3//63
f 1//64 33//64 2//64
f 33//65 34//65 2//65
